
A wonderful documentary for the life of Incas and the famous Macchu Picchu city.


Format                                   : AVI
Format/Info                              : Audio Video Interleave
File size                                : 619 MiB
Duration                                 : 52mn 42s
Overall bit rate                         : 1 641 Kbps
Writing application                      : Lavf52.94.0

Video
ID                                       : 0
Format                                   : AVC
Format/Info                              : Advanced Video Codec
Format profile                           : Main@L4.0
Format settings, CABAC                   : ╬¥╬▒╬╣
Format settings, ReFrames                : 1 frame
Format settings, GOP                     : M=1, N=15
Codec ID                                 : H264
Duration                                 : 52mn 42s
Bit rate                                 : 1 502 Kbps
Maximum bit rate                         : 4 500 Kbps
Width                                    : 1 280 
Height                                   : 720 
Display aspect ratio                     : 16:9
Frame rate                               : 23,976 fps
Color space                              : YUV
Chroma subsampling                       : 4:2:0
Bit depth                                : 8 bits
Scan type                                : continuous
Bits/(Pixel*Frame)                       : 0.068
Stream size                              : 566 MiB (92%)

╬ë╧ç╬┐╧é
ID                                       : 1
Format                                   : AC-3
Format/Info                              : Audio Coding 3
Mode extension                           : CM (complete main)
Format settings, Endianness              : Big
Codec ID                                 : 2000
Duration                                 : 52mn 42s
Bit rate                                 : 128 Kbps
Channel(s)                               : stereo
Channel positions                        : Front: L R
Sampling rate                            : 48,0 KHz
Bit depth                                : 16 bits
Stream size                              : 48,2 MiB (8%)
Interleave, duration                     : 32 ms (0.77 video frames)






















 &lt;a href=http://fr.soundfrost.org/ &gt;youtube downloader&lt;/a&gt;























 &lt;a href=http://fr.soundfrost.org/ &gt;youtube downloader&lt;/a&gt;